<svg width="42" height="38" viewBox="0 0 42 38" fill="none" xmlns="http://www.w3.org/2000/svg">
<path fill-rule="evenodd" clip-rule="evenodd" d="M7.93174 18.5776C8.11914 14.0933 7.67505 9.54951 7.21214 5.14933C7.10931 4.20234 6.26959 3.49881 5.35511 3.64531C4.42445 3.72626 3.75693 4.578 3.84426 5.45928C4.29651 9.72323 4.7429 14.1269 4.55299 18.4037C4.50823 19.3161 5.23281 20.1168 6.16755 20.1736C7.10163 20.2306 7.88632 19.4902 7.93174 18.5776Z" fill="#0C111D"/>
<path d="M5.3941 4.09362L5.41026 4.09221L5.42629 4.08965C6.0575 3.98853 6.68608 4.4766 6.7647 5.19722C7.22777 9.59892 7.66783 14.1109 7.48221 18.5569C7.44788 19.2287 6.8684 19.7656 6.19496 19.7245L6.19486 19.7244C5.49957 19.6822 4.97009 19.0855 5.00246 18.4257L5.00255 18.4237C5.19416 14.1085 4.74368 9.67277 4.29192 5.41349C4.22954 4.77573 4.72 4.15225 5.3941 4.09362Z" stroke="white" stroke-opacity="0.5" stroke-width="0.9"/>
<path fill-rule="evenodd" clip-rule="evenodd" d="M18.4294 25.19C25.7907 18.5156 32.273 10.9288 39.8193 4.39671C40.523 3.81586 40.6013 2.73776 39.9925 2.03844C39.3831 1.33909 38.317 1.23044 37.6108 1.87877C30.0436 8.41001 23.5409 15.9961 16.1588 22.6697C15.4687 23.3186 15.4174 24.3975 16.0444 25.0975C16.6733 25.7301 17.7394 25.839 18.4294 25.19Z" fill="#0C111D"/>
<path d="M18.1271 24.8566L18.1272 24.8567C21.489 21.8085 24.6676 18.5689 27.8592 15.3159C28.1506 15.0189 28.4422 14.7218 28.7339 14.4247C32.2176 10.8775 35.7363 7.33579 39.5248 4.05647L39.5328 4.04958L39.5328 4.04968C40.0352 3.63502 40.1008 2.84843 39.6533 2.33407L18.1271 24.8566ZM18.1271 24.8566L18.1211 24.8622M18.1271 24.8566L18.1211 24.8622M18.1211 24.8622C17.6361 25.3183 16.8546 25.2658 16.3718 24.7886C15.9193 24.274 15.955 23.482 16.4641 23.0003C19.8549 19.9347 23.0601 16.6778 26.2569 13.4295C26.55 13.1318 26.8429 12.8341 27.136 12.5367C30.6306 8.98921 34.1365 5.4718 37.9048 2.21943L37.9049 2.21959L37.9151 2.21027C38.4211 1.74576 39.1975 1.81113 39.6532 2.334L18.1211 24.8622Z" stroke="white" stroke-opacity="0.5" stroke-width="0.9"/>
<path fill-rule="evenodd" clip-rule="evenodd" d="M37.6418 29.8279C33.185 31.0551 28.7281 32.2819 24.2705 33.5093C23.2393 33.7452 22.6239 34.7175 22.8848 35.6275C23.1464 36.5374 24.1747 36.9944 25.2066 36.7584C29.6709 35.5295 34.1346 34.3011 38.5981 33.0724C39.6143 32.7707 40.2246 31.7998 39.9577 30.8911C39.7058 30.0483 38.6572 29.5264 37.6418 29.8279Z" fill="#0C111D"/>
<path d="M37.7613 30.2618L37.7613 30.2617C35.4337 30.9026 33.1061 31.5435 30.7783 32.1843C28.649 32.7705 26.5195 33.3568 24.39 33.9431L24.3805 33.9458L24.3709 33.948C23.5557 34.1344 23.1375 34.8753 23.3172 35.5032L37.7613 30.2618ZM37.7613 30.2618L37.7699 30.2593M37.7613 30.2618L37.7699 30.2593M37.7699 30.2593C38.5933 30.0148 39.3579 30.4583 39.5262 31.019C39.7082 31.6409 39.2997 32.3926 38.4741 32.6397C36.1441 33.2812 33.8143 33.9224 31.4843 34.5637C29.3554 35.1497 27.2264 35.7357 25.0972 36.3218M37.7699 30.2593L25.0972 36.3218M25.0972 36.3218C24.2261 36.517 23.4929 36.1132 23.3173 35.5035L25.0972 36.3218Z" stroke="white" stroke-opacity="0.5" stroke-width="0.9"/>
</svg>
