<svg width="75" height="18" viewBox="0 0 75 18" fill="none" xmlns="http://www.w3.org/2000/svg">
<path d="M74.6112 5.56765L74.3921 8.1582H73.335C71.6427 8.1582 70.7664 9.51099 70.7664 10.809V16.6638H67.7706V5.56217H70.6076L70.6678 6.94782C71.2648 6.00032 72.3109 5.56217 73.587 5.56217H74.6112V5.56765ZM53.832 16.6692H50.8361V10.8035C50.8361 9.57671 50.7266 8.02676 48.9959 8.02676C47.331 8.02676 46.6737 9.23167 46.6737 10.6337V16.6857H43.6779V5.57313H46.4547L46.5149 6.99711C47.1119 6.04961 48.2182 5.30476 49.8613 5.30476C52.879 5.30476 53.8429 7.45717 53.8429 9.71363V16.6747H53.832V16.6692ZM42.3689 14.0732L42.1608 16.6035C41.4433 16.8007 40.7971 16.8719 40.0303 16.8719C37.2043 16.8719 36.3882 15.5793 36.3882 12.9778V2.45132H39.384V5.56765H42.3689L42.1608 8.1582H39.384V12.7369C39.384 13.7829 39.6743 14.3416 40.7478 14.3416C41.2078 14.3416 41.7336 14.2813 42.3689 14.0732ZM35.4024 5.56765L35.1723 8.1582H34.3563C32.6639 8.1582 31.826 9.51099 31.826 10.809V16.6638H28.8301V5.56217H31.6672L31.7274 6.94782C32.3244 6.00032 33.3705 5.56217 34.6466 5.56217H35.4024V5.56765ZM15.2968 15.4369C13.2649 16.5214 11.233 17.1512 8.55484 17.08C3.57638 16.9321 0 13.8432 0 8.61826C0 3.42073 3.62568 0.112709 8.57127 0.0250797C11.0797 -0.0132599 13.3197 0.622055 15.0723 2.16653L12.9692 4.29702C11.8848 3.37144 10.291 2.8347 8.37958 2.92233C5.26325 3.07021 3.40113 5.33215 3.35183 8.43752C3.3135 11.8113 5.37279 14.1225 8.59866 14.2046C10.1212 14.243 11.2056 14.0349 12.1422 13.6186V10.1737H8.78487L9.0149 7.34763H15.3078V15.4369H15.2968ZM66.4287 12.1618H58.2134C58.4435 13.5858 59.5662 14.4402 60.9519 14.473C62.3047 14.5114 63.055 14.0951 64.0463 13.0983L66.007 14.5935C64.6214 16.3078 62.9509 16.9321 61.0505 16.9321C57.7041 16.9321 55.2067 14.5935 55.2067 11.1157C55.2067 7.6379 57.7041 5.29929 60.93 5.29929C64.4954 5.29929 66.4452 7.45169 66.4452 11.2855V12.1618H66.4287ZM63.4219 9.85055C63.3234 8.44848 62.2773 7.56123 60.8314 7.62147C59.3691 7.68172 58.4106 8.61826 58.2025 9.85055H63.4219ZM26.9461 9.39049V16.6528H24.3008L24.2405 15.5574C23.4245 16.5652 22.11 16.9212 20.7573 16.9212C18.7144 16.9212 16.7866 15.9134 16.7537 13.5748C16.6934 9.88889 20.9051 9.63148 23.545 9.63148H24.0708V9.4836C24.0708 8.26774 23.2657 7.61052 21.7486 7.61052C20.6532 7.61052 19.5797 8.04867 18.7911 8.79352L17.0604 7.04093C18.6322 5.76482 20.2644 5.28833 22.0005 5.28833C25.4235 5.28833 26.9461 6.8821 26.9461 9.39049ZM24.0598 11.8222H23.6436C22.2196 11.8222 19.7386 11.8934 19.7386 13.3776C19.7495 15.4698 24.0598 14.8016 24.0598 12.2823V11.8222ZM72.2725 15.3767C72.2725 14.6702 72.8093 14.1334 73.4884 14.1334C74.1566 14.1334 74.6933 14.6702 74.6933 15.3767C74.6933 16.0942 74.1566 16.6309 73.4884 16.6309C72.8093 16.6199 72.2725 16.0942 72.2725 15.3767ZM73.4884 16.8774C74.3044 16.8774 75 16.242 75 15.3822C75 14.5278 74.3044 13.8979 73.4884 13.8979C72.6723 13.8979 71.9658 14.5333 71.9658 15.3822C71.9713 16.242 72.6614 16.8774 73.4884 16.8774ZM73.1762 15.4862H73.4829L73.932 16.2311H74.2223L73.7349 15.4753C73.9923 15.4369 74.184 15.3055 74.184 14.9988C74.184 14.6592 73.9758 14.5114 73.576 14.5114H72.9188V16.242H73.1762V15.4862ZM73.1762 15.2672V14.7304H73.5267C73.7075 14.7304 73.9046 14.7688 73.9046 14.9878C73.9046 15.2562 73.7075 15.2672 73.4884 15.2672H73.1762Z" fill="#0C111D"/>
</svg>
