<svg width="231" height="45" viewBox="0 0 231 45" fill="none" xmlns="http://www.w3.org/2000/svg">
<path d="M4.10086 15.4037C2.92464 15.4037 1.93917 15.043 1.14443 14.3215C0.381475 13.5687 0 12.6433 0 11.5454C0 10.4475 0.381475 9.53782 1.14443 8.81635C1.93917 8.0635 2.92464 7.68708 4.10086 7.68708C5.27707 7.68708 6.24666 8.0635 7.00961 8.81635C7.80435 9.53782 8.20172 10.4475 8.20172 11.5454C8.20172 12.6433 7.80435 13.5687 7.00961 14.3215C6.24666 15.043 5.27707 15.4037 4.10086 15.4037ZM7.39108 18.5092V44.5765H0.715266V18.5092H7.39108Z" fill="#16140C"/>
<path d="M28.6259 18.1328C31.7731 18.1328 34.3163 19.1209 36.2554 21.0971C38.1946 23.042 39.1642 25.7711 39.1642 29.2843V44.5765H32.4884V30.1783C32.4884 28.108 31.9638 26.5239 30.9148 25.426C29.8657 24.2967 28.4352 23.7321 26.6232 23.7321C24.7794 23.7321 23.3171 24.2967 22.2362 25.426C21.1871 26.5239 20.6626 28.108 20.6626 30.1783V44.5765H13.9868V18.5092H20.6626V21.7559C21.5527 20.6266 22.6813 19.7483 24.0482 19.1209C25.447 18.4622 26.9729 18.1328 28.6259 18.1328Z" fill="#16140C"/>
<path d="M60.1516 18.1328C63.2988 18.1328 65.842 19.1209 67.7811 21.0971C69.7203 23.042 70.6899 25.7711 70.6899 29.2843V44.5765H64.0141V30.1783C64.0141 28.108 63.4895 26.5239 62.4405 25.426C61.3914 24.2967 59.9609 23.7321 58.1489 23.7321C56.3051 23.7321 54.8428 24.2967 53.7619 25.426C52.7129 26.5239 52.1883 28.108 52.1883 30.1783V44.5765H45.5125V18.5092H52.1883V21.7559C53.0784 20.6266 54.207 19.7483 55.5739 19.1209C56.9727 18.4622 58.4986 18.1328 60.1516 18.1328Z" fill="#16140C"/>
<path d="M88.7686 45C86.2254 45 83.9366 44.451 81.9021 43.3531C79.8675 42.2239 78.2621 40.6398 77.0859 38.6008C75.9415 36.5619 75.3693 34.2092 75.3693 31.5429C75.3693 28.8766 75.9574 26.5239 77.1336 24.485C78.3416 22.446 79.9788 20.8776 82.0451 19.7797C84.1114 18.6504 86.4162 18.0858 88.9594 18.0858C91.5025 18.0858 93.8073 18.6504 95.8736 19.7797C97.9399 20.8776 99.5612 22.446 100.737 24.485C101.945 26.5239 102.549 28.8766 102.549 31.5429C102.549 34.2092 101.93 36.5619 100.69 38.6008C99.4817 40.6398 97.8287 42.2239 95.7305 43.3531C93.6642 44.451 91.3436 45 88.7686 45ZM88.7686 39.2596C89.9766 39.2596 91.1051 38.9772 92.1542 38.4126C93.235 37.8166 94.0934 36.9383 94.7292 35.7776C95.365 34.617 95.6829 33.2054 95.6829 31.5429C95.6829 29.0648 95.0153 27.167 93.6801 25.8495C92.3767 24.5006 90.7714 23.8262 88.864 23.8262C86.9566 23.8262 85.3512 24.5006 84.0479 25.8495C82.7763 27.167 82.1405 29.0648 82.1405 31.5429C82.1405 34.021 82.7604 35.9345 84.0002 37.2833C85.2718 38.6008 86.8612 39.2596 88.7686 39.2596Z" fill="#16140C"/>
<path d="M140.253 18.1328C143.496 18.1328 146.103 19.1209 148.073 21.0971C150.076 23.042 151.078 25.7711 151.078 29.2843V44.5765H144.402V30.1783C144.402 28.1394 143.877 26.5866 142.828 25.5201C141.779 24.4222 140.349 23.8733 138.537 23.8733C136.725 23.8733 135.278 24.4222 134.197 25.5201C133.148 26.5866 132.624 28.1394 132.624 30.1783V44.5765H125.948V30.1783C125.948 28.1394 125.423 26.5866 124.374 25.5201C123.325 24.4222 121.895 23.8733 120.083 23.8733C118.239 23.8733 116.777 24.4222 115.696 25.5201C114.647 26.5866 114.122 28.1394 114.122 30.1783V44.5765H107.446V18.5092H114.122V21.6618C114.98 20.5639 116.077 19.7012 117.412 19.0739C118.779 18.4465 120.273 18.1328 121.895 18.1328C123.961 18.1328 125.805 18.572 127.426 19.4503C129.047 20.2972 130.303 21.5206 131.193 23.1204C132.052 21.6147 133.291 20.407 134.913 19.4973C136.566 18.5877 138.346 18.1328 140.253 18.1328Z" fill="#16140C"/>
<path d="M155.696 31.4488C155.696 28.8138 156.22 26.4769 157.269 24.4379C158.35 22.3989 159.797 20.8305 161.609 19.7326C163.453 18.6347 165.503 18.0858 167.76 18.0858C169.731 18.0858 171.448 18.4779 172.91 19.2621C174.404 20.0463 175.596 21.0344 176.486 22.2264V18.5092H183.21V44.5765H176.486V40.7652C175.628 41.9886 174.436 43.0081 172.91 43.8237C171.416 44.6079 169.683 45 167.712 45C165.487 45 163.453 44.4354 161.609 43.3061C159.797 42.1768 158.35 40.5927 157.269 38.5538C156.22 36.4834 155.696 34.1151 155.696 31.4488ZM176.486 31.5429C176.486 29.9431 176.168 28.5786 175.533 27.4493C174.897 26.2886 174.039 25.4103 172.958 24.8143C171.877 24.1869 170.716 23.8733 169.477 23.8733C168.237 23.8733 167.092 24.1713 166.043 24.7673C164.994 25.3633 164.136 26.2416 163.468 27.4022C162.833 28.5315 162.515 29.8803 162.515 31.4488C162.515 33.0172 162.833 34.3974 163.468 35.5894C164.136 36.7501 164.994 37.6441 166.043 38.2714C167.124 38.8988 168.269 39.2125 169.477 39.2125C170.716 39.2125 171.877 38.9145 172.958 38.3185C174.039 37.6911 174.897 36.8128 175.533 35.6835C176.168 34.5229 176.486 33.1427 176.486 31.5429Z" fill="#16140C"/>
<path d="M197.781 16.8057H190.427L204.756 35.4449L231 0L204.791 25.4161L197.781 16.8057Z" fill="#16140C"/>
<path d="M203.939 36.2504L199.858 31.0142L189.653 44.3061H197.817L203.939 36.2504Z" fill="#16140C"/>
<path d="M205.572 36.2504L209.654 31.0142L219.859 44.3061H211.695L205.572 36.2504Z" fill="#16140C"/>
</svg>
