<svg width="154" height="31" viewBox="0 0 154 31" fill="none" xmlns="http://www.w3.org/2000/svg">
<path d="M2.7339 10.4252C1.94976 10.4252 1.29278 10.181 0.76295 9.69273C0.254317 9.18321 0 8.55694 0 7.8139C0 7.07085 0.254317 6.45519 0.76295 5.96691C1.29278 5.45739 1.94976 5.20264 2.7339 5.20264C3.51805 5.20264 4.16443 5.45739 4.67307 5.96691C5.20289 6.45519 5.46781 7.07085 5.46781 7.8139C5.46781 8.55694 5.20289 9.18321 4.67307 9.69273C4.16443 10.181 3.51805 10.4252 2.7339 10.4252ZM4.92738 12.5269V30.1688H0.476844V12.5269H4.92738Z" fill="#1438BC"/>
<path d="M19.0839 12.2721C21.182 12.2721 22.8775 12.9409 24.1703 14.2784C25.463 15.5946 26.1094 17.4416 26.1094 19.8193V30.1688H21.6589V20.4244C21.6589 19.0232 21.3092 17.9511 20.6098 17.2081C19.9105 16.4438 18.9568 16.0617 17.7488 16.0617C16.5196 16.0617 15.5447 16.4438 14.8241 17.2081C14.1248 17.9511 13.7751 19.0232 13.7751 20.4244V30.1688H9.32453V12.5269H13.7751V14.7242C14.3685 13.9599 15.1208 13.3655 16.0321 12.9409C16.9646 12.4951 17.9819 12.2721 19.0839 12.2721Z" fill="#1438BC"/>
<path d="M40.1011 12.2721C42.1992 12.2721 43.8946 12.9409 45.1874 14.2784C46.4802 15.5946 47.1266 17.4416 47.1266 19.8193V30.1688H42.676V20.4244C42.676 19.0232 42.3263 17.9511 41.627 17.2081C40.9276 16.4438 39.9739 16.0617 38.7659 16.0617C37.5367 16.0617 36.5618 16.4438 35.8413 17.2081C35.1419 17.9511 34.7922 19.0232 34.7922 20.4244V30.1688H30.3417V12.5269H34.7922V14.7242C35.3856 13.9599 36.138 13.3655 37.0493 12.9409C37.9818 12.4951 38.999 12.2721 40.1011 12.2721Z" fill="#1438BC"/>
<path d="M59.179 30.4554C57.4836 30.4554 55.9577 30.0839 54.6013 29.3409C53.245 28.5766 52.1747 27.5045 51.3906 26.1246C50.6276 24.7446 50.2462 23.1524 50.2462 21.3479C50.2462 19.5433 50.6382 17.9511 51.4224 16.5712C52.2277 15.1912 53.3191 14.1297 54.6967 13.3867C56.0742 12.6224 57.6107 12.2403 59.3062 12.2403C61.0016 12.2403 62.5381 12.6224 63.9157 13.3867C65.2932 14.1297 66.3741 15.1912 67.1582 16.5712C67.9635 17.9511 68.3662 19.5433 68.3662 21.3479C68.3662 23.1524 67.9529 24.7446 67.1264 26.1246C66.3211 27.5045 65.219 28.5766 63.8203 29.3409C62.4428 30.0839 60.8957 30.4554 59.179 30.4554ZM59.179 26.5704C59.9844 26.5704 60.7367 26.3793 61.4361 25.9972C62.1566 25.5938 62.7289 24.9994 63.1527 24.2139C63.5766 23.4284 63.7885 22.473 63.7885 21.3479C63.7885 19.6707 63.3435 18.3863 62.4534 17.4947C61.5844 16.5818 60.5142 16.1253 59.2426 16.1253C57.971 16.1253 56.9008 16.5818 56.0319 17.4947C55.1841 18.3863 54.7603 19.6707 54.7603 21.3479C54.7603 23.025 55.1735 24.32 56.0001 25.2329C56.8478 26.1245 57.9074 26.5704 59.179 26.5704Z" fill="#1438BC"/>
<path d="M93.5021 12.2721C95.6638 12.2721 97.4016 12.9409 98.7156 14.2784C100.051 15.5946 100.718 17.4416 100.718 19.8193V30.1688H96.2678V20.4244C96.2678 19.0444 95.9181 17.9936 95.2187 17.2717C94.5193 16.5287 93.5657 16.1572 92.3577 16.1572C91.1497 16.1572 90.1854 16.5287 89.4648 17.2717C88.7654 17.9936 88.4157 19.0444 88.4157 20.4244V30.1688H83.9652V20.4244C83.9652 19.0444 83.6155 17.9936 82.9162 17.2717C82.2168 16.5287 81.2631 16.1572 80.0551 16.1572C78.8259 16.1572 77.851 16.5287 77.1304 17.2717C76.4311 17.9936 76.0814 19.0444 76.0814 20.4244V30.1688H71.6309V12.5269H76.0814V14.6605C76.6536 13.9174 77.3848 13.3336 78.2749 12.909C79.1862 12.4844 80.1823 12.2721 81.2631 12.2721C82.6406 12.2721 83.8698 12.5694 84.9507 13.1638C86.0315 13.737 86.8687 14.565 87.4621 15.6477C88.0343 14.6286 88.8608 13.8113 89.9416 13.1956C91.0437 12.58 92.2305 12.2721 93.5021 12.2721Z" fill="#1438BC"/>
<path d="M103.797 21.2842C103.797 19.5009 104.147 17.9193 104.846 16.5393C105.567 15.1594 106.531 14.0979 107.739 13.3549C108.968 12.6118 110.335 12.2403 111.84 12.2403C113.154 12.2403 114.298 12.5057 115.273 13.0364C116.269 13.5672 117.064 14.2359 117.657 15.0426V12.5269H122.14V30.1688H117.657V27.5894C117.085 28.4174 116.29 29.1073 115.273 29.6593C114.277 30.19 113.122 30.4554 111.808 30.4554C110.325 30.4554 108.968 30.0733 107.739 29.309C106.531 28.5447 105.567 27.4726 104.846 26.0927C104.147 24.6915 103.797 23.0887 103.797 21.2842ZM117.657 21.3479C117.657 20.2651 117.446 19.3416 117.022 18.5774C116.598 17.7919 116.026 17.1974 115.305 16.7941C114.584 16.3695 113.811 16.1572 112.984 16.1572C112.158 16.1572 111.395 16.3589 110.696 16.7622C109.996 17.1656 109.424 17.76 108.979 18.5455C108.555 19.3098 108.343 20.2227 108.343 21.2842C108.343 22.3457 108.555 23.2798 108.979 24.0865C109.424 24.872 109.996 25.477 110.696 25.9016C111.416 26.3262 112.179 26.5385 112.984 26.5385C113.811 26.5385 114.584 26.3368 115.305 25.9335C116.026 25.5089 116.598 24.9145 117.022 24.1502C117.446 23.3647 117.657 22.4306 117.657 21.3479Z" fill="#1438BC"/>
<path d="M131.855 11.3739H126.952L136.504 23.9885L154 0L136.527 17.2012L131.855 11.3739Z" fill="#53BAFF"/>
<path d="M135.96 24.5337L133.239 20.9899L126.436 29.9856H131.878L135.96 24.5337Z" fill="#53BAFF"/>
<path d="M137.048 24.5337L139.77 20.9899L146.573 29.9856H141.13L137.048 24.5337Z" fill="#53BAFF"/>
</svg>
