<svg width="167" height="33" viewBox="0 0 167 33" fill="none" xmlns="http://www.w3.org/2000/svg">
<path d="M2.96235 10.6589C2.11268 10.6589 1.4008 10.3944 0.826701 9.86528C0.275567 9.31319 0 8.63458 0 7.82945C0 7.02432 0.275567 6.35722 0.826701 5.82813C1.4008 5.27604 2.11268 5 2.96235 5C3.81201 5 4.51241 5.27604 5.06355 5.82813C5.63764 6.35722 5.92469 7.02432 5.92469 7.82945C5.92469 8.63458 5.63764 9.31319 5.06355 9.86528C4.51241 10.3944 3.81201 10.6589 2.96235 10.6589ZM5.33911 12.9363V32.0523H0.516689V12.9363H5.33911Z" fill="white"/>
<path d="M20.6786 12.6602C22.952 12.6602 24.7891 13.3848 26.1899 14.8341C27.5907 16.2603 28.2911 18.2616 28.2911 20.838V32.0523H23.4687V21.4936C23.4687 19.9754 23.0898 18.8137 22.332 18.0086C21.5742 17.1805 20.5408 16.7664 19.2318 16.7664C17.8999 16.7664 16.8436 17.1805 16.0628 18.0086C15.305 18.8137 14.9261 19.9754 14.9261 21.4936V32.0523H10.1037V12.9363H14.9261V15.3172C15.5691 14.489 16.3843 13.8449 17.3718 13.3848C18.3822 12.9018 19.4844 12.6602 20.6786 12.6602Z" fill="white"/>
<path d="M43.4519 12.6602C45.7253 12.6602 47.5624 13.3848 48.9632 14.8341C50.364 16.2603 51.0644 18.2616 51.0644 20.838V32.0523H46.242V21.4936C46.242 19.9754 45.8631 18.8137 45.1053 18.0086C44.3475 17.1805 43.3141 16.7664 42.0051 16.7664C40.6732 16.7664 39.6169 17.1805 38.8361 18.0086C38.0783 18.8137 37.6994 19.9754 37.6994 21.4936V32.0523H32.877V12.9363H37.6994V15.3172C38.3424 14.489 39.1576 13.8449 40.1451 13.3848C41.1555 12.9018 42.2578 12.6602 43.4519 12.6602Z" fill="white"/>
<path d="M64.124 32.3629C62.2869 32.3629 60.6335 31.9603 59.1638 31.1552C57.6941 30.3271 56.5344 29.1654 55.6847 27.6701C54.858 26.1749 54.4447 24.4496 54.4447 22.4943C54.4447 20.539 54.8695 18.8137 55.7192 17.3185C56.5918 15.8232 57.7745 14.6731 59.2671 13.8679C60.7598 13.0398 62.4247 12.6257 64.2618 12.6257C66.0989 12.6257 67.7638 13.0398 69.2564 13.8679C70.7491 14.6731 71.9202 15.8232 72.7699 17.3185C73.6425 18.8137 74.0788 20.539 74.0788 22.4943C74.0788 24.4496 73.6311 26.1749 72.7355 27.6701C71.8628 29.1654 70.6687 30.3271 69.1531 31.1552C67.6604 31.9603 65.9841 32.3629 64.124 32.3629ZM64.124 28.1532C64.9966 28.1532 65.8118 27.9462 66.5696 27.5321C67.3504 27.095 67.9704 26.4509 68.4297 25.5998C68.889 24.7487 69.1186 23.7135 69.1186 22.4943C69.1186 20.677 68.6364 19.2853 67.6719 18.3191C66.7304 17.33 65.5707 16.8354 64.1929 16.8354C62.815 16.8354 61.6554 17.33 60.7138 18.3191C59.7953 19.2853 59.336 20.677 59.336 22.4943C59.336 24.3116 59.7838 25.7148 60.6794 26.704C61.598 27.6701 62.7462 28.1532 64.124 28.1532Z" fill="white"/>
<path d="M101.315 12.6602C103.657 12.6602 105.54 13.3848 106.964 14.8341C108.411 16.2603 109.134 18.2616 109.134 20.838V32.0523H104.312V21.4936C104.312 19.9984 103.933 18.8597 103.175 18.0776C102.417 17.2725 101.384 16.8699 100.075 16.8699C98.7661 16.8699 97.7212 17.2725 96.9404 18.0776C96.1826 18.8597 95.8037 19.9984 95.8037 21.4936V32.0523H90.9813V21.4936C90.9813 19.9984 90.6024 18.8597 89.8446 18.0776C89.0868 17.2725 88.0534 16.8699 86.7444 16.8699C85.4125 16.8699 84.3562 17.2725 83.5754 18.0776C82.8176 18.8597 82.4387 19.9984 82.4387 21.4936V32.0523H77.6163V12.9363H82.4387V15.2481C83.0587 14.443 83.851 13.8104 84.8155 13.3503C85.8029 12.8903 86.8822 12.6602 88.0534 12.6602C89.546 12.6602 90.878 12.9823 92.0491 13.6264C93.2203 14.2475 94.1273 15.1446 94.7703 16.3178C95.3904 15.2136 96.286 14.328 97.4571 13.6609C98.6512 12.9938 99.9372 12.6602 101.315 12.6602Z" fill="white"/>
<path d="M112.47 22.4253C112.47 20.493 112.849 18.7792 113.607 17.284C114.388 15.7887 115.433 14.6385 116.742 13.8334C118.074 13.0283 119.555 12.6257 121.185 12.6257C122.609 12.6257 123.849 12.9133 124.905 13.4884C125.985 14.0635 126.846 14.7881 127.489 15.6622V12.9363H132.346V32.0523H127.489V29.2574C126.869 30.1545 126.008 30.9022 124.905 31.5002C123.826 32.0753 122.575 32.3629 121.151 32.3629C119.543 32.3629 118.074 31.9488 116.742 31.1207C115.433 30.2926 114.388 29.1309 113.607 27.6356C112.849 26.1174 112.47 24.3806 112.47 22.4253ZM127.489 22.4943C127.489 21.3211 127.259 20.3205 126.8 19.4923C126.341 18.6412 125.721 17.9971 124.94 17.56C124.159 17.0999 123.321 16.8699 122.425 16.8699C121.53 16.8699 120.703 17.0884 119.945 17.5255C119.187 17.9626 118.567 18.6067 118.085 19.4578C117.626 20.286 117.396 21.2751 117.396 22.4253C117.396 23.5755 117.626 24.5876 118.085 25.4618C118.567 26.3129 119.187 26.9685 119.945 27.4286C120.726 27.8887 121.553 28.1187 122.425 28.1187C123.321 28.1187 124.159 27.9002 124.94 27.4631C125.721 27.003 126.341 26.3589 126.8 25.5308C127.259 24.6797 127.489 23.6675 127.489 22.4943Z" fill="white"/>
<path d="M142.872 12.3243H137.559L147.91 25.993L166.868 0L147.935 18.6386L142.872 12.3243Z" fill="#53BAFF"/>
<path d="M147.32 26.5837L144.372 22.7438L137 32.4912H142.897L147.32 26.5837Z" fill="#53BAFF"/>
<path d="M148.5 26.5837L151.448 22.7438L158.82 32.4912H152.923L148.5 26.5837Z" fill="#53BAFF"/>
</svg>
