<svg width="167" height="33" viewBox="0 0 167 33" fill="none" xmlns="http://www.w3.org/2000/svg">
<path d="M2.96235 11.2961C2.11268 11.2961 1.4008 11.0316 0.826701 10.5025C0.275567 9.9504 0 9.27179 0 8.46666C0 7.66153 0.275567 6.99442 0.826701 6.46534C1.4008 5.91325 2.11268 5.63721 2.96235 5.63721C3.81201 5.63721 4.51241 5.91325 5.06355 6.46534C5.63764 6.99442 5.92469 7.66153 5.92469 8.46666C5.92469 9.27179 5.63764 9.9504 5.06355 10.5025C4.51241 11.0316 3.81201 11.2961 2.96235 11.2961ZM5.33911 13.5735V32.6895H0.516689V13.5735H5.33911Z" fill="#2042BF"/>
<path d="M20.6786 13.2974C22.952 13.2974 24.7891 14.0221 26.1899 15.4713C27.5907 16.8975 28.2911 18.8988 28.2911 21.4752V32.6895H23.4687V22.1309C23.4687 20.6126 23.0898 19.4509 22.332 18.6458C21.5742 17.8177 20.5408 17.4036 19.2318 17.4036C17.8999 17.4036 16.8436 17.8177 16.0628 18.6458C15.305 19.4509 14.9261 20.6126 14.9261 22.1309V32.6895H10.1037V13.5735H14.9261V15.9544C15.5691 15.1262 16.3843 14.4821 17.3718 14.0221C18.3822 13.539 19.4844 13.2974 20.6786 13.2974Z" fill="#2042BF"/>
<path d="M43.4519 13.2974C45.7253 13.2974 47.5624 14.0221 48.9632 15.4713C50.364 16.8975 51.0644 18.8988 51.0644 21.4752V32.6895H46.242V22.1309C46.242 20.6126 45.8631 19.4509 45.1053 18.6458C44.3475 17.8177 43.3141 17.4036 42.0051 17.4036C40.6732 17.4036 39.6169 17.8177 38.8361 18.6458C38.0783 19.4509 37.6994 20.6126 37.6994 22.1309V32.6895H32.877V13.5735H37.6994V15.9544C38.3424 15.1262 39.1576 14.4821 40.1451 14.0221C41.1555 13.539 42.2578 13.2974 43.4519 13.2974Z" fill="#2042BF"/>
<path d="M64.124 33.0001C62.2869 33.0001 60.6335 32.5975 59.1638 31.7924C57.6941 30.9643 56.5344 29.8026 55.6847 28.3073C54.858 26.8121 54.4447 25.0868 54.4447 23.1315C54.4447 21.1762 54.8695 19.4509 55.7192 17.9557C56.5918 16.4604 57.7745 15.3103 59.2671 14.5051C60.7598 13.677 62.4247 13.2629 64.2618 13.2629C66.0989 13.2629 67.7638 13.677 69.2564 14.5051C70.7491 15.3103 71.9202 16.4604 72.7699 17.9557C73.6425 19.4509 74.0788 21.1762 74.0788 23.1315C74.0788 25.0868 73.6311 26.8121 72.7355 28.3073C71.8628 29.8026 70.6687 30.9643 69.1531 31.7924C67.6604 32.5975 65.9841 33.0001 64.124 33.0001ZM64.124 28.7904C64.9966 28.7904 65.8118 28.5834 66.5696 28.1693C67.3504 27.7322 67.9704 27.0881 68.4297 26.237C68.889 25.3859 69.1186 24.3507 69.1186 23.1315C69.1186 21.3142 68.6364 19.9225 67.6719 18.9563C66.7304 17.9672 65.5707 17.4726 64.1929 17.4726C62.815 17.4726 61.6554 17.9672 60.7138 18.9563C59.7953 19.9225 59.336 21.3142 59.336 23.1315C59.336 24.9488 59.7838 26.352 60.6794 27.3412C61.598 28.3073 62.7461 28.7904 64.124 28.7904Z" fill="#2042BF"/>
<path d="M101.315 13.2974C103.657 13.2974 105.54 14.0221 106.964 15.4713C108.411 16.8975 109.134 18.8988 109.134 21.4752V32.6895H104.312V22.1309C104.312 20.6356 103.933 19.4969 103.175 18.7148C102.417 17.9097 101.384 17.5071 100.075 17.5071C98.7661 17.5071 97.7212 17.9097 96.9404 18.7148C96.1826 19.4969 95.8037 20.6356 95.8037 22.1309V32.6895H90.9813V22.1309C90.9813 20.6356 90.6024 19.4969 89.8446 18.7148C89.0868 17.9097 88.0534 17.5071 86.7444 17.5071C85.4125 17.5071 84.3562 17.9097 83.5754 18.7148C82.8176 19.4969 82.4387 20.6356 82.4387 22.1309V32.6895H77.6163V13.5735H82.4387V15.8854C83.0587 15.0802 83.851 14.4476 84.8155 13.9875C85.8029 13.5275 86.8822 13.2974 88.0534 13.2974C89.546 13.2974 90.878 13.6195 92.0491 14.2636C93.2203 14.8847 94.1274 15.7818 94.7703 16.955C95.3904 15.8508 96.286 14.9652 97.4571 14.2981C98.6512 13.631 99.9372 13.2974 101.315 13.2974Z" fill="#2042BF"/>
<path d="M112.47 23.0625C112.47 21.1302 112.849 19.4164 113.607 17.9212C114.388 16.4259 115.433 15.2758 116.742 14.4706C118.074 13.6655 119.555 13.2629 121.185 13.2629C122.609 13.2629 123.849 13.5505 124.905 14.1256C125.985 14.7007 126.846 15.4253 127.489 16.2994V13.5735H132.346V32.6895H127.489V29.8946C126.869 30.7917 126.008 31.5394 124.905 32.1375C123.826 32.7125 122.575 33.0001 121.151 33.0001C119.543 33.0001 118.074 32.586 116.742 31.7579C115.433 30.9298 114.388 29.7681 113.607 28.2728C112.849 26.7546 112.47 25.0178 112.47 23.0625ZM127.489 23.1315C127.489 21.9583 127.259 20.9577 126.8 20.1295C126.341 19.2784 125.721 18.6343 124.94 18.1972C124.159 17.7371 123.321 17.5071 122.425 17.5071C121.53 17.5071 120.703 17.7256 119.945 18.1627C119.187 18.5998 118.567 19.2439 118.085 20.095C117.626 20.9232 117.396 21.9123 117.396 23.0625C117.396 24.2127 117.626 25.2248 118.085 26.099C118.567 26.9501 119.187 27.6057 119.945 28.0658C120.726 28.5259 121.553 28.7559 122.425 28.7559C123.321 28.7559 124.159 28.5374 124.94 28.1003C125.721 27.6402 126.341 26.9961 126.8 26.168C127.259 25.3169 127.489 24.3047 127.489 23.1315Z" fill="#2042BF"/>
<path d="M142.872 12.3243H137.559L147.91 25.993L166.868 0L147.935 18.6386L142.872 12.3243Z" fill="#53BAFF"/>
<path d="M147.32 26.5837L144.372 22.7438L137 32.4912H142.897L147.32 26.5837Z" fill="#53BAFF"/>
<path d="M148.5 26.5837L151.448 22.7438L158.82 32.4912H152.923L148.5 26.5837Z" fill="#53BAFF"/>
</svg>
