<svg width="168" height="33" viewBox="0 0 168 33" fill="none" xmlns="http://www.w3.org/2000/svg">
<path d="M2.96235 10.2961C2.11268 10.2961 1.4008 10.0316 0.826701 9.50249C0.275567 8.9504 0 8.27179 0 7.46666C0 6.66153 0.275567 5.99442 0.826701 5.46534C1.4008 4.91325 2.11268 4.63721 2.96235 4.63721C3.81201 4.63721 4.51241 4.91325 5.06355 5.46534C5.63764 5.99442 5.92469 6.66153 5.92469 7.46666C5.92469 8.27179 5.63764 8.9504 5.06355 9.50249C4.51241 10.0316 3.81201 10.2961 2.96235 10.2961ZM5.33911 12.5735V31.6895H0.516689V12.5735H5.33911Z" fill="black"/>
<path d="M20.6786 12.2974C22.952 12.2974 24.7891 13.0221 26.1899 14.4713C27.5907 15.8975 28.2911 17.8988 28.2911 20.4752V31.6895H23.4687V21.1309C23.4687 19.6126 23.0898 18.4509 22.332 17.6458C21.5742 16.8177 20.5408 16.4036 19.2318 16.4036C17.8999 16.4036 16.8436 16.8177 16.0628 17.6458C15.305 18.4509 14.9261 19.6126 14.9261 21.1309V31.6895H10.1037V12.5735H14.9261V14.9544C15.5691 14.1262 16.3843 13.4821 17.3718 13.0221C18.3822 12.539 19.4844 12.2974 20.6786 12.2974Z" fill="black"/>
<path d="M43.4519 12.2974C45.7253 12.2974 47.5624 13.0221 48.9632 14.4713C50.364 15.8975 51.0644 17.8988 51.0644 20.4752V31.6895H46.242V21.1309C46.242 19.6126 45.8631 18.4509 45.1053 17.6458C44.3475 16.8177 43.3141 16.4036 42.0051 16.4036C40.6732 16.4036 39.6169 16.8177 38.8361 17.6458C38.0783 18.4509 37.6994 19.6126 37.6994 21.1309V31.6895H32.877V12.5735H37.6994V14.9544C38.3424 14.1262 39.1576 13.4821 40.1451 13.0221C41.1555 12.539 42.2578 12.2974 43.4519 12.2974Z" fill="black"/>
<path d="M64.124 32.0001C62.2869 32.0001 60.6335 31.5975 59.1638 30.7924C57.6941 29.9643 56.5344 28.8026 55.6847 27.3073C54.858 25.8121 54.4447 24.0868 54.4447 22.1315C54.4447 20.1762 54.8695 18.4509 55.7192 16.9557C56.5918 15.4604 57.7745 14.3103 59.2671 13.5051C60.7598 12.677 62.4247 12.2629 64.2618 12.2629C66.0989 12.2629 67.7638 12.677 69.2564 13.5051C70.7491 14.3103 71.9202 15.4604 72.7699 16.9557C73.6425 18.4509 74.0788 20.1762 74.0788 22.1315C74.0788 24.0868 73.6311 25.8121 72.7355 27.3073C71.8628 28.8026 70.6687 29.9643 69.1531 30.7924C67.6604 31.5975 65.9841 32.0001 64.124 32.0001ZM64.124 27.7904C64.9966 27.7904 65.8118 27.5834 66.5696 27.1693C67.3504 26.7322 67.9704 26.0881 68.4297 25.237C68.889 24.3859 69.1186 23.3507 69.1186 22.1315C69.1186 20.3142 68.6364 18.9225 67.6719 17.9563C66.7304 16.9672 65.5707 16.4726 64.1929 16.4726C62.815 16.4726 61.6554 16.9672 60.7138 17.9563C59.7953 18.9225 59.336 20.3142 59.336 22.1315C59.336 23.9488 59.7838 25.352 60.6794 26.3412C61.598 27.3073 62.7461 27.7904 64.124 27.7904Z" fill="black"/>
<path d="M101.315 12.2974C103.657 12.2974 105.54 13.0221 106.964 14.4713C108.411 15.8975 109.134 17.8988 109.134 20.4752V31.6895H104.312V21.1309C104.312 19.6356 103.933 18.4969 103.175 17.7148C102.417 16.9097 101.384 16.5071 100.075 16.5071C98.7661 16.5071 97.7212 16.9097 96.9404 17.7148C96.1826 18.4969 95.8037 19.6356 95.8037 21.1309V31.6895H90.9813V21.1309C90.9813 19.6356 90.6024 18.4969 89.8446 17.7148C89.0868 16.9097 88.0534 16.5071 86.7444 16.5071C85.4125 16.5071 84.3562 16.9097 83.5754 17.7148C82.8176 18.4969 82.4387 19.6356 82.4387 21.1309V31.6895H77.6163V12.5735H82.4387V14.8854C83.0587 14.0802 83.851 13.4476 84.8155 12.9875C85.8029 12.5275 86.8822 12.2974 88.0534 12.2974C89.546 12.2974 90.878 12.6195 92.0491 13.2636C93.2203 13.8847 94.1274 14.7818 94.7703 15.955C95.3904 14.8508 96.286 13.9652 97.4571 13.2981C98.6512 12.631 99.9372 12.2974 101.315 12.2974Z" fill="black"/>
<path d="M112.47 22.0625C112.47 20.1302 112.849 18.4164 113.607 16.9212C114.388 15.4259 115.433 14.2758 116.742 13.4706C118.074 12.6655 119.555 12.2629 121.185 12.2629C122.609 12.2629 123.849 12.5505 124.905 13.1256C125.985 13.7007 126.846 14.4253 127.489 15.2994V12.5735H132.346V31.6895H127.489V28.8946C126.869 29.7917 126.008 30.5394 124.905 31.1375C123.826 31.7125 122.575 32.0001 121.151 32.0001C119.543 32.0001 118.074 31.586 116.742 30.7579C115.433 29.9298 114.388 28.7681 113.607 27.2728C112.849 25.7546 112.47 24.0178 112.47 22.0625ZM127.489 22.1315C127.489 20.9583 127.259 19.9577 126.8 19.1295C126.341 18.2784 125.721 17.6343 124.94 17.1972C124.159 16.7371 123.321 16.5071 122.425 16.5071C121.53 16.5071 120.703 16.7256 119.945 17.1627C119.187 17.5998 118.567 18.2439 118.085 19.095C117.626 19.9232 117.396 20.9123 117.396 22.0625C117.396 23.2127 117.626 24.2248 118.085 25.099C118.567 25.9501 119.187 26.6057 119.945 27.0658C120.726 27.5259 121.553 27.7559 122.425 27.7559C123.321 27.7559 124.159 27.5374 124.94 27.1003C125.721 26.6402 126.341 25.9961 126.8 25.168C127.259 24.3169 127.489 23.3047 127.489 22.1315Z" fill="black"/>
<path d="M143.872 12.3243H138.559L148.91 25.993L167.868 0L148.935 18.6386L143.872 12.3243Z" fill="#D44A00"/>
<path d="M148.32 26.5837L145.372 22.7438L138 32.4912H143.897L148.32 26.5837Z" fill="#D44A00"/>
<path d="M149.5 26.5837L152.448 22.7438L159.82 32.4912H153.923L149.5 26.5837Z" fill="#D44A00"/>
</svg>
