<svg width="168" height="25" viewBox="0 0 168 25" fill="none" xmlns="http://www.w3.org/2000/svg">
<path d="M10.304 8.77095C10.304 8.77095 8.904 8.63129 8.904 9.86034V15.3631H18.088V17.0112C18.088 17.0112 18.116 17.8212 17.248 17.8212H8.904V24.9721H18.928C18.928 24.9721 25.004 24.0503 25.06 17.8212V8.77095H10.304ZM24.78 0H6.692C0.140001 1.53631 0 6.89944 0 6.89944V25H6.944V8.51955C6.944 7.1229 8.344 6.87151 8.344 6.87151H24.752L24.78 0ZM48.664 19.8045C48.188 20.1117 47.824 20.3631 47.572 20.5028C46.676 21.0615 45.836 21.4804 45.052 21.8156C43.904 22.2905 42.896 22.514 41.972 22.514C38.836 22.514 36.232 21.5643 34.16 19.6369C32.06 17.7095 31.024 15.2793 31.024 12.3743C31.024 9.55307 31.948 7.12291 33.852 5.02793C35.728 2.96089 38.024 1.92737 40.712 1.92737C41.832 1.92737 43.036 2.12291 44.268 2.51397C45.892 3.01676 47.18 3.79888 48.244 4.77653L46.452 6.75978C45.696 6.00559 44.688 5.47486 43.54 5.13966C42.672 4.88827 41.72 4.7486 40.656 4.7486C38.78 4.7486 37.184 5.50279 35.896 7.01117C34.636 8.54749 33.992 10.3352 33.992 12.4581C33.992 14.5531 34.72 16.2849 36.176 17.6536C37.632 19.0223 39.48 19.7207 41.72 19.7207C42.644 19.7207 43.596 19.4134 44.576 18.8547C45.388 18.2402 45.808 17.933 45.808 17.933V13.5754H39.732L40.6 10.8659H48.664V19.8045ZM66.948 14.4972C66.948 16.5922 66.192 18.4078 64.708 19.9441C63.224 21.4805 61.376 22.2626 59.164 22.2626C57.12 22.2626 55.356 21.5084 53.816 20C52.276 18.4916 51.52 16.676 51.52 14.5251C51.52 12.4022 52.248 10.5866 53.704 9.02235C55.16 7.4581 56.952 6.70391 59.024 6.70391C61.348 6.70391 63.224 7.4581 64.708 8.93855C66.192 10.3911 66.948 12.2626 66.948 14.4972ZM64.12 14.5531C64.12 13.1285 63.644 11.9274 62.692 10.9497C61.74 9.94413 60.564 9.46928 59.136 9.46928C57.82 9.46928 56.7 9.97207 55.748 11.0056C54.824 12.0112 54.348 13.1844 54.348 14.4972C54.348 15.8659 54.824 17.0391 55.748 18.0168C56.672 18.9944 57.848 19.4972 59.248 19.4972C60.564 19.4972 61.684 19.0223 62.636 18.0447C63.644 17.0391 64.12 15.8659 64.12 14.5531ZM85.008 14.4972C85.008 16.5922 84.252 18.4078 82.768 19.9441C81.284 21.4805 79.436 22.2626 77.224 22.2626C75.18 22.2626 73.416 21.5084 71.876 20C70.336 18.4916 69.58 16.676 69.58 14.5251C69.58 12.4022 70.308 10.5866 71.764 9.02235C73.22 7.4581 75.012 6.70391 77.084 6.70391C79.408 6.70391 81.284 7.4581 82.768 8.93855C84.252 10.3911 85.008 12.2626 85.008 14.4972ZM82.152 14.5531C82.152 13.1285 81.676 11.9274 80.724 10.9497C79.772 9.94413 78.596 9.46928 77.168 9.46928C75.852 9.46928 74.732 9.97207 73.78 11.0056C72.856 12.0112 72.38 13.1844 72.38 14.4972C72.38 15.8659 72.856 17.0391 73.78 18.0168C74.704 18.9944 75.88 19.4972 77.28 19.4972C78.596 19.4972 79.716 19.0223 80.668 18.0447C81.676 17.0391 82.152 15.8659 82.152 14.5531ZM101.696 21.8436L99.092 22.2346V19.7207L98.532 20.3631C98.028 20.838 97.468 21.2011 96.88 21.5084C95.984 21.9274 95.032 22.1229 94.052 22.1229C92.008 22.1229 90.272 21.3687 88.872 19.8883C87.472 18.4078 86.744 16.5922 86.744 14.5251C86.744 12.3743 87.444 10.5307 88.844 9.02235C90.244 7.48604 91.924 6.73184 93.968 6.73184C95.144 6.73184 96.152 6.92737 96.992 7.2905C97.608 7.56983 98.112 7.93296 98.56 8.37989C98.7 8.57542 98.84 8.77095 99.008 8.96648V2.34637L101.78 1.95531L101.696 21.8436ZM99.26 14.6927C99.26 13.2123 98.756 11.9553 97.748 10.9497C96.74 9.9162 95.592 9.41341 94.276 9.41341C92.82 9.41341 91.672 9.88827 90.776 10.8659C89.936 11.7877 89.516 12.933 89.516 14.2737C89.516 15.7821 89.964 17.0391 90.832 18.0168C91.7 18.9944 92.792 19.4693 94.164 19.4693C95.48 19.4693 96.656 19.0224 97.692 18.1006C98.728 17.1788 99.26 16.0335 99.26 14.6927ZM116.368 5.0838H108.584V10.3631H114.632V13.0726H108.584V21.8156L105.56 22.2626V2.34637H115.78L116.368 5.0838ZM122.612 3.54749L120.736 5.89385L118.944 3.54749L120.82 1.22905L122.612 3.54749ZM122.052 21.8436L119.28 22.2346V7.48604L122.052 7.06704V21.8436ZM134.596 6.89944L133.28 9.9162C133.112 9.88827 132.944 9.88827 132.748 9.88827C132.468 9.88827 132.216 9.9162 131.936 9.94413C131.656 9.97207 131.376 10.0838 131.068 10.2514C130.48 10.5028 129.976 11.0615 129.556 11.8715C129.08 12.8212 128.828 13.8548 128.828 14.9162V21.8156L126.056 22.2626V7.48604L128.632 7.01117V10.0838C128.968 9.55307 129.304 9.02235 129.64 8.46369C130.116 7.90503 130.676 7.51396 131.292 7.26257C131.628 7.1229 132.216 7.03911 133.14 6.95531C134.036 6.89945 134.54 6.87151 134.596 6.89944ZM155.316 21.8436L152.544 22.2346V12.1229C152.544 11.2011 152.348 10.5028 151.928 10.0838C151.508 9.6648 150.892 9.44134 150.08 9.44134C149.1 9.44134 148.372 9.8324 147.868 10.6425C147.532 11.2011 147.336 11.7877 147.336 12.3743V21.7877L144.564 22.2905V12.1508C144.564 11.257 144.368 10.5866 143.948 10.1117C143.528 9.63687 142.996 9.41341 142.296 9.41341H142.016C141.036 9.41341 140.336 9.80447 139.888 10.6425C139.552 11.257 139.384 12.0391 139.384 12.9888V21.7598L136.5 22.2626V7.43017L139.104 6.98324V8.88268C139.384 8.43576 139.692 8.07262 139.944 7.82123C140.7 7.1229 141.568 6.78771 142.548 6.78771C143.64 6.78771 144.452 6.95531 145.012 7.31844C145.488 7.6257 145.936 8.21229 146.412 9.05028C147.364 7.5419 148.708 6.78771 150.5 6.78771C152.208 6.78771 153.468 7.31843 154.308 8.40782C154.98 9.30167 155.316 10.6145 155.316 12.3184V21.8436ZM168 17.3743C168 18.743 167.524 19.8603 166.572 20.7263C165.62 21.6201 164.416 22.0391 162.96 22.0391C161.868 22.0391 160.888 21.7877 159.992 21.2849C159.096 20.7821 158.424 20.1955 158.004 19.5251L159.964 17.7933C160.104 18.0168 160.244 18.1844 160.356 18.2961C161.084 19.0503 161.952 19.4134 162.96 19.4134C163.66 19.4134 164.22 19.2179 164.612 18.8547C165.032 18.4916 165.228 17.9888 165.228 17.3184C165.228 16.5642 164.752 16.0615 163.8 15.7821C161.924 15.2235 160.888 14.8883 160.748 14.8324C159.88 14.3855 159.264 13.9106 158.872 13.3799C158.424 12.7654 158.2 11.9553 158.2 10.9218C158.2 9.63687 158.676 8.60335 159.6 7.73743C160.524 6.89944 161.644 6.48045 162.932 6.48045C163.912 6.48045 164.808 6.70391 165.648 7.15084C166.488 7.59776 167.076 8.07263 167.44 8.60335L165.788 10.3911C165.536 10.1397 165.256 9.9162 164.976 9.72067C164.304 9.24581 163.66 9.02235 163.072 9.02235C162.484 9.02235 162.008 9.16201 161.644 9.41341C161.196 9.72067 160.972 10.1955 160.972 10.8101C160.972 11.3966 161.168 11.8436 161.616 12.1229C161.98 12.3464 162.764 12.5978 164.024 12.8771C165.256 13.1844 166.236 13.6872 166.908 14.4134C167.692 15.1955 168 16.1453 168 17.3743Z" fill="#3A7AF3"/>
</svg>
