<svg width="180" height="28" viewBox="0 0 180 28" fill="none" xmlns="http://www.w3.org/2000/svg">
<g clip-path="url(#clip0_540_458)">
<path d="M32.0422 6.4104H38.0578C42.8996 6.4104 46.2742 9.72619 46.2742 13.9999V14.0736C46.2742 18.3472 42.973 21.663 38.0578 21.663H32.0422V6.4104ZM38.0578 18.5683C40.8455 18.5683 42.6795 16.7262 42.6795 14.0736V13.9999C42.6795 11.3472 40.8455 9.43145 38.0578 9.43145H35.4902V18.5683H38.0578Z" fill="#17313B"/>
<path d="M49.2086 6.4104H60.873V9.35777H52.6566V12.4525H59.9193V15.3999H52.6566V18.5683H61.0197V21.5157H49.282L49.2086 6.4104Z" fill="#17313B"/>
<path d="M62.9271 19.3789L64.9812 17.021C66.3751 18.1263 67.8423 18.8631 69.6029 18.8631C70.9968 18.8631 71.8038 18.2737 71.8038 17.4631V17.3895C71.8038 16.5052 71.2169 16.0631 68.7226 15.4737C65.6415 14.6631 63.5874 13.8526 63.5874 10.8316V10.7579C63.5874 8.03156 65.7882 6.18945 69.0161 6.18945C71.2169 6.18945 73.1976 6.85261 74.7382 8.10524L72.9775 10.6842C71.657 9.7263 70.2632 9.21051 68.9427 9.21051C67.6222 9.21051 66.962 9.79998 66.962 10.5368V10.4631C66.962 11.421 67.6222 11.7895 70.2632 12.4526C73.4177 13.2631 75.105 14.3684 75.105 16.9473V17.021C75.105 20.0421 72.7575 21.7368 69.4562 21.7368C67.1087 21.7368 64.7611 20.9263 62.9271 19.3789Z" fill="#17313B"/>
<path d="M78.186 6.4104H81.5606V21.5893H78.186V6.4104Z" fill="#17313B"/>
<path d="M84.7886 13.9999C84.7886 9.65257 88.1632 6.11572 92.8582 6.11572C95.646 6.11572 97.2599 6.85257 98.8738 8.25257L96.7464 10.8315C95.5726 9.87362 94.5455 9.28414 92.7115 9.28414C90.2173 9.28414 88.3099 11.421 88.3099 13.9999V14.0736C88.3099 16.8736 90.2173 18.9368 93.005 18.9368C94.2521 18.9368 95.3525 18.642 96.2328 17.9789V15.842H92.7849V12.9684H99.4607V19.5262C97.8468 20.8526 95.7193 21.9578 92.8582 21.9578C88.0164 21.7368 84.7886 18.4947 84.7886 13.9999Z" fill="#17313B"/>
<path d="M102.689 6.4104H105.843L113.032 15.6946V6.4104H116.334V21.5893H113.473L105.99 11.9367V21.5893H102.689V6.4104Z" fill="#17313B"/>
<path fill-rule="evenodd" clip-rule="evenodd" d="M151.547 19.3789L153.601 17.021C154.995 18.1263 156.462 18.8631 158.223 18.8631C159.617 18.8631 160.424 18.2737 160.424 17.4631V17.3895C160.424 16.5052 159.837 16.0631 157.342 15.4737C154.261 14.6631 152.207 13.8526 152.207 10.8316V10.7579C152.207 8.03156 154.408 6.18945 157.636 6.18945C159.837 6.18945 161.817 6.85261 163.358 8.10524L161.597 10.6842C160.277 9.7263 158.883 9.21051 157.562 9.21051C156.261 9.21051 155.601 9.78286 155.582 10.5046C155.601 11.4318 156.28 11.7991 158.883 12.4526C162.037 13.2631 163.725 14.3684 163.725 16.9473V17.021C163.725 20.0421 161.377 21.7368 158.076 21.7368C155.802 21.7368 153.381 20.9263 151.547 19.3789ZM135.774 6.33689V15.0316C135.774 19.4527 138.269 21.6632 142.377 21.6632C146.485 21.6632 149.126 19.379 149.126 14.8106V6.26321H145.751V14.8843C145.751 17.3158 144.504 18.5685 142.45 18.5685C140.396 18.5685 139.149 17.3895 139.149 14.8843V6.33689H135.774ZM127.118 6.41054H120.075H119.928V21.5895H123.376V16.7263H126.017H126.091L129.392 21.5895H133.353L129.612 16.2105C131.593 15.4737 132.913 13.9263 132.913 11.4948V11.4211C132.913 10.0211 132.473 8.84212 131.593 7.95791C130.566 7.00001 129.098 6.41054 127.118 6.41054ZM129.465 11.5684C129.465 12.8211 128.585 13.7053 126.898 13.7053H123.45V9.35791H126.824C128.512 9.35791 129.465 10.0948 129.465 11.4948V11.5684ZM170.034 6.41054H166.659V21.5895H170.034V15.5474H176.269V21.5895H179.644V6.41054H176.269V12.4526H170.034V6.41054Z" fill="url(#paint0_linear_540_458)"/>
<path d="M17.1829 14.8546C17.1168 14.7882 17.1829 14.7882 17.1829 14.8546L16.9846 14.5225L16.9185 14.4561L11.3644 6.61958C11.3644 6.61958 11.3644 6.55317 11.2983 6.55317L11.1661 6.42035L11.0999 6.35394L11.0999 6.22112L9.51306 3.96313L10.1743 8.41269C10.1743 8.61192 10.2404 8.67833 10.3065 8.87757C10.3065 8.94398 10.3726 9.0768 10.3726 9.0768C10.4387 9.27603 10.5049 9.34244 10.571 9.47527C10.6371 9.60809 10.7032 9.6745 10.7693 9.80732C10.8355 9.87373 10.9016 10.0066 10.9677 10.0066C11.0338 10.073 11.0338 10.1394 11.0999 10.2058C11.1661 10.3386 11.2322 10.405 11.2983 10.405C11.4966 10.6043 11.695 10.7371 11.8272 10.9363L16.7862 14.4561L16.8523 14.5225L17.1829 14.8546Z" fill="#774EFB"/>
<path d="M24.8528 14.8546L24.3239 14.5225L24.2577 14.4561L9.51306 4.02954L11.0999 6.28752L11.3644 6.68599L16.9185 14.5225L16.9185 14.5889L17.1168 14.8546C17.1168 14.8546 17.1168 14.921 17.1829 14.921L16.9185 15.253L9.51306 25.8124L24.3239 15.1866L24.39 15.1202L24.8528 14.8546Z" fill="url(#paint1_linear_540_458)"/>
<path d="M14.6705 14.8545L14.1415 14.5224L14.0754 14.456L10.505 11.866L11.0339 14.456L11.0339 14.5224L11.1 14.8545L11.0339 15.1865L10.4388 17.7102L14.1415 15.1865L14.2077 15.1865L14.6705 14.8545Z" fill="#5F3EC9"/>
<path d="M9.44702 25.8788L9.90986 22.5582L10.1082 21.2964C10.2405 20.3002 10.7694 19.3705 11.629 18.7728L16.6541 15.253L16.7202 15.1865L17.183 14.8545L16.7863 15.253L16.7202 15.3194L17.183 14.8545L10.8355 23.82L9.44702 25.8788Z" fill="#774EFB"/>
</g>
<defs>
<linearGradient id="paint0_linear_540_458" x1="118.505" y1="-10.3158" x2="180.275" y2="-10.3158" gradientUnits="userSpaceOnUse">
<stop stop-color="#7552FB"/>
<stop offset="1" stop-color="#40C5FE"/>
</linearGradient>
<linearGradient id="paint1_linear_540_458" x1="35.1675" y1="8.94399" x2="9.7033" y2="4.00521" gradientUnits="userSpaceOnUse">
<stop stop-color="#754CF6"/>
<stop offset="0.884" stop-color="#2AF4FF"/>
</linearGradient>
<clipPath id="clip0_540_458">
<rect width="179" height="28" fill="white" transform="translate(0.643799)"/>
</clipPath>
</defs>
</svg>
